{"title":"Karate.Kids.2010.CAM. XVID-WBZ","uid":5630749,"size":1403355979,"categoryP":"video","categoryS":"movies","magnet":"?xt=urn:btih:b0740c28d4ac1daea99612847b989f8ce756c09b&amp;dn=Karate.Kids.2010.CAM.+XVID-WBZ&amp;tr=udp%3A%2F%2Ftracker.openbittorrent.com%3A80&amp;tr=udp%3A%2F%2Fopen.demonii.com%3A1337&amp;tr=udp%3A%2F%2Ftracker.coppersurfer.tk%3A6969&amp;tr=udp%3A%2F%2Fexodus.desync.com%3A6969","seeders":1,"leechers":0,"uploader":"hiest","files":3,"time":1276667496,"description":"\n12-year-old Dre Parker could've been the most popular kid in Detroit, but his mother's latest career move has landed him in China. Dre immediately falls for his classmate Mei Ying - and the feeling is mutual - but cultural differences make such a friendship impossible. Even worse, Dre's feelings make an enemy of the class bully, Cheng. In the land of kung fu, Dre knows only a little karate, and Cheng puts &quot;the karate kid&quot; on the floor with ease. With no friends in a strange land, Dre has nowhere to turn but maintenance man Mr. Han, who is secretly a master of kung fu. As Han teaches Dre that kung fu is not about punches and parries, but maturity and calm, Dre realizes that facing down the bullies will be the fight of his life.\n\n \nMOVIEmeter: Up 500% in popularity this week. &lt;a href=&quot;\nhttp://www.imdb.com/title/tt1155076/&quot; rel=&quot;nofollow&quot; target=&quot;_NEW&quot;&gt;\nhttp://www.imdb.com/title/tt1155076/&lt;/a&gt;\nGenre:Action | Drama | Family | Sport\n\n \nVideo\nFormat : xvid\nCodec ID : xvid\nDuration : 2h 13mn\nBit rate : 1 311 Kbps\nWidth : 640 pixels\nHeight : 300 pixels\nDisplay aspect ratio : 2.2:1\nFrame rate : 29.970 fps\nBits/(Pixel*Frame) : 0.228\nStream size : 1.23 GiB (94%)\n\nAudio\nID : 1\nFormat : MPEG Audio\nFormat version : Version 1\nFormat profile : Layer 2\nCodec ID : 50\nDuration : 2h 13mn\nBit rate mode : Constant\nBit rate : 64.0 Kbps\nChannel(s) : 2 channels\nSampling rate : 48.0 KHz\nStream size : 61.3 MiB (5%)\nAlignment : Aligned on interleaves\nInterleave, duration : 24 ms (0.72 video frame)\nInterleave, preload duration : 24 ms\n\n\n\nScreenshots\n &lt;a href=&quot;\nhttp://postimg.com/image/17000/16379.jpg&quot; rel=&quot;nofollow&quot; target=&quot;_NEW&quot;&gt;\nhttp://postimg.com/image/17000/16379.jpg&lt;/a&gt;","torrent":{"xt":"urn:btih:b0740c28d4ac1daea99612847b989f8ce756c09b","amp;dn":"Karate.Kids.2010.CAM.+XVID-WBZ","amp;tr":["udp%3A%2F%2Ftracker.openbittorrent.com%3A80","udp%3A%2F%2Fopen.demonii.com%3A1337","udp%3A%2F%2Ftracker.coppersurfer.tk%3A6969","udp%3A%2F%2Fexodus.desync.com%3A6969"],"infoHash":"b0740c28d4ac1daea99612847b989f8ce756c09b","infoHashBuffer":{"type":"Buffer","data":[176,116,12,40,212,172,29,174,169,150,18,132,123,152,159,140,231,86,192,155]},"announce":[],"urlList":[]}}